<svg xmlns="http://www.w3.org/2000/svg" xmlns:xlink="http://www.w3.org/1999/xlink" viewBox="0 0 444.97 438.98"><defs><style>.cls-1,.cls-10,.cls-11,.cls-6,.cls-8,.cls-9{fill:none;}.cls-2{isolation:isolate;}.cls-3{clip-path:url(#clip-path);}.cls-4{fill:#ffe300;stroke:url(#Dégradé_sans_nom_92);}.cls-10,.cls-11,.cls-4,.cls-6,.cls-7,.cls-8,.cls-9{stroke-miterlimit:10;}.cls-10,.cls-11,.cls-5,.cls-7{mix-blend-mode:multiply;}.cls-10,.cls-11,.cls-5{opacity:0.85;}.cls-6,.cls-7{stroke:#ed228c;}.cls-6{stroke-width:5px;}.cls-7{fill:#ed228c;}.cls-8{stroke:#939598;}.cls-9{stroke:#7d51a1;}.cls-10,.cls-11,.cls-9{stroke-width:7px;}.cls-10{stroke:#ed238c;}.cls-11{stroke:#ed248c;}</style><clipPath id="clip-path"><path class="cls-1" d="M414.91,92.39V361.23a31.18,31.18,0,0,1-31.18,31.18H105.93a31.18,31.18,0,0,1-31.18-31.18V83.43a31.18,31.18,0,0,1,31.18-31.18h277.8a31.18,31.18,0,0,1,31.18,31.18v9"/></clipPath><linearGradient id="Dégradé_sans_nom_92" x1="74.25" y1="222.33" x2="415.41" y2="222.33" gradientUnits="userSpaceOnUse"><stop offset="0" stop-color="#fff"/><stop offset="1" stop-color="#e9f2f1"/></linearGradient></defs><g class="cls-2"><g id="Calque_1" data-name="Calque 1"><g class="cls-3"><path class="cls-4" d="M414.91,92.39V361.23a31.18,31.18,0,0,1-31.18,31.18H105.93a31.18,31.18,0,0,1-31.18-31.18V83.43a31.18,31.18,0,0,1,31.18-31.18h277.8a31.18,31.18,0,0,1,31.18,31.18v9"/><g class="cls-5"><path class="cls-6" d="M173.87,47.91C230.53,92,286.84,133,346.28,178.08c26.07,19.47,49,37.92,74.36,56.36"/></g><circle class="cls-7" cx="159.8" cy="293.27" r="4.5"/><polyline class="cls-8" points="315.3 205.61 244.43 221.88 288.23 293.21"/><polyline class="cls-8" points="244.43 151.47 244.43 221.88 173.56 205.61"/><line class="cls-8" x1="200.63" y1="293.21" x2="244.43" y2="221.88"/><path class="cls-9" d="M243.55,152l-69.47,53a1.42,1.42,0,0,0-.49,1.55l26.56,85.86a1.4,1.4,0,0,0,1.35,1h85.82a1.4,1.4,0,0,0,1.35-1l26.57-85.86a1.42,1.42,0,0,0-.5-1.55l-69.47-53A1.41,1.41,0,0,0,243.55,152Z"/><path class="cls-10" d="M293.94,86.87l69.18,53.38a1.43,1.43,0,0,0,1.62.08l76.07-47.89a1.42,1.42,0,0,0,.61-1.56L419.21,8a1.4,1.4,0,0,0-1.31-1L328.08,3.5a1.41,1.41,0,0,0-1.36.88L293.49,85.2A1.43,1.43,0,0,0,293.94,86.87Z"/><path class="cls-11" d="M75.25,435.19l69.47-53a1.43,1.43,0,0,0,.5-1.54l-26.57-85.87a1.42,1.42,0,0,0-1.35-1H31.48a1.42,1.42,0,0,0-1.35,1L3.56,380.64a1.43,1.43,0,0,0,.5,1.54l69.47,53A1.41,1.41,0,0,0,75.25,435.19Z"/></g></g></g></svg>